<svg xmlns="http://www.w3.org/2000/svg" width="330.373" height="698.863" viewBox="0 0 330.373 698.863"><defs><style>.a{fill:#c9c9c9;fill-rule:evenodd;}</style></defs><g transform="translate(0)"><path class="a" d="M196.738,657.14c4.625-2.757-1.439.4,2.873-2.2,2.464-1.194,1.152-.32-.161.572s-2.6,1.849-.185.7c1.387-.892,3.3-1.89,5.111-2.8l2.553-1.264q.98-.45,1.945-.931c-2.253.905-1.244-.192-.434-.727,1.917-.8,5.9-3.23,9.112-4.752-7.682,4.085,6.66-3.017-.248.724a31.067,31.067,0,0,0,4.659-1.875c2.3-1.053,4.936-2.2,6.386-3.008-.308-.1-2.735,1.056-4.751,1.964-1.8.365,4.93-2.493,5.906-3.354,3.9-1.444,11.973-4.65,18.178-7.187,3.079-1.33,5.731-2.419,7.19-2.975s1.748-.528.163.521c-2.5,1.375-4.8,2.17-7.606,3.427,7.748-3.781-.141-.462-.877-.33-3.3,1.575-9.219,3.787-7.761,3.524l5.489-1.972-13.837,6.043-7.437,3.42-7.6,3.686q-15.131,7.556-29.586,16.365c2.63-1.62,5.247-3.264,7.934-4.789a25.911,25.911,0,0,0-3.2,1.58l-4.6,2.652,3.55-2.9c-2.258,1.44-4.49,2.7-4.18,2.768-2.924,1.489-1.735.575-.171-.63-1.491.89-2.675,1.588-3.656,2.222l-2.545,1.663q-2.572,1.672-5.272,3.136c9.426-6.707,8.364-5.045,19.5-12.177l3.559-1.1Zm39.29-19.805,6.415-2.627-4.1,1.883a9.2,9.2,0,0,0-2.315.744m44.01-20.642c-2.053,1.278-3.8,2.389-5.454,3.357l-4.771,2.692c-1.549.919-3.2,1.73-5.005,2.742l-2.887,1.6-3.353,1.779c-4.969,2.023,1.888-1.78-.33-1.084a37.2,37.2,0,0,1,4.658-2.068,35.913,35.913,0,0,0,4.826-2.1c1.629-1.32,7.16-3.967,11.594-6.982-.473.472-.387.608.722.059" transform="translate(-122.631 28.443)"/><path class="a" d="M142.3,594.778c1.576-1.526,3.022-3.185,4.459-4.7a42.421,42.421,0,0,0,3.675-4.474,8.513,8.513,0,0,0-1.46,1.477c-.34.4-.716.849-1.1,1.335l-1.271,1.466a6.551,6.551,0,0,1,.875-1.289c.385-.468.814-1.018,1.327-1.621s1.08-1.286,1.692-2.056q.482-.6.944-1.225c.32-.435.61-.924.923-1.425-.194.366-1.112,1.807-.262.79,1.662-2.423,2.8-3.919,3.581-5.094s1.308-1.946,1.9-2.81a33.038,33.038,0,0,0,2.137-3.447l1.62-2.957q.538-.967.984-1.98l1.105-2.4c1.12-1.912,1.924-3.949,2.08-3.475q.771-2.121,1.5-4.256c.285-.934.42-1.515.595-2.138s.36-1.3.7-2.444c.163-.573.4-1.25.626-2.116s.487-1.9.808-3.166c.071.428-.474,3.856-.076,3.906,1.915-7.17,2.7-10.859,3.414-13.89a74.321,74.321,0,0,0,1.6-10.15c-.183,1.048-.433,2.28-.783,4.81-.367-1.294,1.327-7.812,1.635-13.068l-.538.47.233-1.954.181-2.223.384-4.958q.1-2.6.126-5.207v-2.522c-.032-.821-.083-1.618-.138-2.378l-.222,1.38q.022-2.36.044-4.72v-2.412l-.085-2.433-.19-4.9c-.078-1.635-.227-3.262-.34-4.879-.128-1.614-.223-3.216-.378-4.789l-.477-4.624c-.278-3.019-.655-5.874-.961-8.491-.36-1.863-.68-3.73-1.1-5.581-.954-7.2-.347-3.65.381.386.694,4.04,1.39,8.583,1.057,3.254a4.573,4.573,0,0,1-.6-1.915c-.16-.895-.289-2.036-.431-3.389A96.333,96.333,0,0,0,171,446.188c-.984-3.8,1.175,8.317.07,4.1.158-1.882-.586-4.387-1.168-8.756-.289,1.012-1.438-9.135-1.513-6.355-.483-5.17-.91-10.346-1.2-15.526a82,82,0,0,1-1.116-10.283c.727,8.366.43-2.343,1.466,7,.593,6.816,1.675,15.894,3.136,25.35,1.53,9.439,3.177,19.315,4.3,27.806a34.533,34.533,0,0,0,.419,6.536,47.651,47.651,0,0,1,.4,7.177c.222.382.487,1.655.71,2.056.43,11.044-.43-2.575-.536.13.179,4.827.706,8.706.908,8.254.17,7.916-.145.882-.4,4.92.243,1.718.511,3.438.67,5.166l-.136,4.726c-.026,1.606-.2,3.235-.289,4.89-.166,3.314-.587,6.708-.96,10.18a160.4,160.4,0,0,1-4.209,21.23,124.38,124.38,0,0,1-7.841,20.829,123.013,123.013,0,0,1-11.163,18.64l.9-1.983c-.453.654-.881,1.306-1.342,1.917l-1.4,1.763c-.932,1.141-1.808,2.263-2.73,3.294l-2.768,2.955-1.35,1.422-1.4,1.337-2.745,2.66c-.908.89-1.883,1.713-2.816,2.6-.95.87-1.867,1.8-2.85,2.7s-1.988,1.828-3,2.814l-1.583,1.09-1.631,1.024c1.787-1.106-1.379,1.82,1.443.028-1.42.991-2.843,2.077-4.277,3.172s-2.96,2.095-4.458,3.077c1.692-1.278,3.44-2.476,5.061-3.844-.468.3-.936.613-1.4.931s-.943.611-1.406.913q-1.321.873-2.6,1.807c-.8.577-1.495,1.133-2.081,1.587a15.244,15.244,0,0,0-1.323,1.084c-4.122,2.375-3.018,1.464-.7-.21l1.9-1.361,1.937-1.491c1.235-.959,2.285-1.788,2.663-2.156,1.439-.844,2.593-1.735,3.662-2.478q1.416-1.018,2.792-2.09c1.59-1.34,2.788-2.495,3.973-3.633,1.206-1.113,2.272-2.351,3.7-3.759.7-.718,1.519-1.454,2.39-2.342q1.473-1.515,3-2.98c5.55-5.6-.251.908.188.664" transform="translate(39.912 28.443)"/><path class="a" d="M91.479,606.75a19.461,19.461,0,0,1-1.584,1.137c.57-.385,1.072-.779,1.584-1.137m35.21-197.382-.21-3.727c.026-1.268.08.753.21,3.727m-49.3,207.266s0,0,.022-.02l.084-.048-.106.068m-5.93,2.532c1.03-.584,2.009-1.25,3.008-1.881l-.421.491c-.856.475-1.706.96-2.586,1.39M127.54,371.84l.217.008c-.129.3-.225.43-.217-.008m52.79-85.857-1.429,1.688q.683-.87,1.429-1.688" transform="translate(79.296 28.443)"/><path class="a" d="M62.126,92.88C56.42,89.518,48.621,85.4,44.36,82.965l.334.4c-3.1-1.676-13.409-6.808-6.52-4.033l1.55.933c7.447,3.909,5.67,2.311,11.619,5.122,7.02,3.708,10.62,6.615,16.78,9.974,2.635,1.58,2.325,1.17,1.636.552,6.091,3.582,8.042,5.656,12,8.417,1.247-.112,5.71,3.01,10.658,7.215,4.978,4.182,10.317,9.482,14.22,13,2.176,2.5,4.694,5.448,7.075,8.792a61.627,61.627,0,0,1,6.274,10.966c-.408-1.049-.39-1.132-.138-.691a25.284,25.284,0,0,1,1.206,2.467c.993,2.1,1.865,4.62,1.776,3.663a8.409,8.409,0,0,0,.351,1.724c.195.813.5,1.828.832,2.989a72.154,72.154,0,0,1,1.753,8.229c.954,5.918.61,11.846-.07,12.53-.083,2.85-.327,4.292-.385,5.075a5.464,5.464,0,0,1-.164,1.052c-.042.164-.1.382-.263,1.372-.092.494-.177,1.188-.368,2.153-.21.961-.425,2.216-.805,3.82a16.016,16.016,0,0,0,.86-2.995c-.9,5.183-2.481,7.632-3.432,11.868l-.592,1.661-.512,1.26q-.321.794-.673,1.575c-.316.692-.4.752-.442.685-.1-.143.02-.767-1.419,2.011-2.21,5-3.13,6.748-3.657,8s-.725,1.994-2.038,4.746c-.937.6-4.1,6.314-7.374,10.578.767-1.1,4.7-7.426,1.863-3.443a91.3,91.3,0,0,1-6.587,9.213l-6.8,8.285c-1.624,2.55.22.234,1.71-1.661.753-.94,1.385-1.8,1.47-1.876a26.81,26.81,0,0,1-1.9,2.752c4.9-5.73,8.18-10.406,10.826-13.5-2.812,4.218-6.175,8.728-9.746,13.212s-7.45,8.866-11.112,13c-3.9,4.739,2.25-2.2-.82,1.517-6.886,8.536-11.412,12.4-16.891,19.215l1.425-1.164c-3.793,3.766-12.53,14.722-19.257,22.337.711-1.105,1.17-1.821.23-.868.739.411-9.475,10.5-15.189,18.781.041-.474-1.49,1.167-3.513,3.534-1.975,2.4-4.46,5.524-6.234,8.058-1.14,1.86-.7,1.605-.567,1.655a55.077,55.077,0,0,1,5.839-7.71c1.452-1.634,2.882-2.951,5.411-6.034q-1.811,2.165-3.554,4.384c-1.264,1.618-2.545,3.371-3.837,5.087s-2.482,3.467-3.638,5.031-2.136,3.039-3.025,4.186l1.593-1.67c-2.543,3.823-3.733,5.446-4.983,7.108a26.956,26.956,0,0,0-1.924,2.895,43.126,43.126,0,0,0-2.548,4.91l.689-.72a103.579,103.579,0,0,0-5.907,13.733,105.947,105.947,0,0,0-3.707,14.75A173.051,173.051,0,0,0,1.817,400.3c-.1.679-.358-.931-.612-2.77s-.382-3.907-.49-4.113c.04-1.164.058-2.266.122-3.318l.25-3.01c.087-.96.158-1.88.255-2.769.126-.886.247-1.746.365-2.588l.355-2.48c.117-.817.3-1.62.447-2.429.325-1.617.568-3.266,1.007-4.986l-.479.014c.157-.381.392-1.19.643-2.11l.383-1.428c.137-.478.3-.938.433-1.353.55-1.66.89-2.547.428-.242.826-2.76,1-3.842,1.288-5.006q.23-1.035.528-2.053.221-.749.468-1.49.389-1,.812-1.98a6.715,6.715,0,0,0-1.328,2.142c-.442.977-.857,1.9-1.06,1.874.342-.911.642-1.835,1.016-2.73l1.142-2.679c-.83,1.657,1.08-3.313.273-1.72,2.373-4.85,3.971-8.226,5.725-11.594.888-1.675,1.733-3.394,2.848-5.207l1.753-2.9c.647-1.012,1.382-2.063,2.17-3.2l-1.666,2.6c-.553.867-1.058,1.767-1.59,2.647.128.05.648-.68,1.318-1.7q1.145-1.7,2.323-3.38a30.017,30.017,0,0,1,2.12-3.7c.859-1.276,1.867-2.862,3.51-5.183,3.085-3.807,5.123-5.673,9.233-10.849-.642.389,1.022-1.8,2.9-4.229a58.36,58.36,0,0,0,4.259-5.683c1.291-.77,8.36-9.677,9.2-10.176,2.362-2.627,5.465-6.332,5.238-6.487l-1.794,1.961,2.27-2.684c-.262.216-.214.09-.49.4,2.029-2.389,2.331-2.171,4.788-5.426a29.1,29.1,0,0,0-2.77,2.945C64.795,274.8,69.545,270.6,73.717,265c1.083-.893,7.37-8.233,6.435-6.3,1.549-2.107.564-1.627,5.187-6.962,2.969-2.8,4.972-6.1,8.523-10.117-2.393,2.64-2.44,2.607-2.4,2.51s.156-.28-2,1.968c2.91-3.794,7.874-8.95,12.59-15.818.4-.767.267-.819.667-1.59.946-1.227,2.007-2.52,2.951-3.877a23.758,23.758,0,0,0,2.472-4.114l.079.495c2.873-4.867,6.77-11.767,8.87-17.468.6-1.027,1.128-2.084,1.67-3.14l.815-1.586.758-1.614c1.344-4.575,2.873-9.914,3.891-15.135a84.417,84.417,0,0,0,1.634-14.1c-.133-3.527-1.1-8.7-1.3-8.639.048.4.142.94.2,1.585l.182,2.183c-.186-1.265-.379-2.6-.7-3.916-.153-.658-.275-1.322-.447-1.966l-.517-1.9c-.681-2.469-1.4-4.632-1.686-6.077-1.84-4.941-1.8-3.423-3.593-6.885a50.627,50.627,0,0,0-4.746-8.144,79.7,79.7,0,0,0-6.739-8.245c-1.156-1.288-2.361-2.455-3.44-3.585L100,119.572q-1.2-1.134-2.34-2.338a9.316,9.316,0,0,1-1.294-1.535l1.381,1.178,1.6,1.425c1.152,1,2.39,2.179,3.716,3.448a90.083,90.083,0,0,1,8.055,8.92c-1.29-1.8-.024-.59-1.977-3.016-1.378-1.584-2.6-2.973-3.823-4.177-1.19-1.24-2.359-2.319-3.523-3.4-1.15-1.1-2.377-2.111-3.64-3.273-1.31-1.106-2.67-2.353-4.28-3.7l.314,1.166c-5.744-4.289-11.156-8.45-16.454-12.159a96.082,96.082,0,0,0-15.609-9.23" transform="translate(204.017 28.443)"/><path class="a" d="M2.288,172.212l-.057-1.51L2.1,169.2c-.09-1-.167-2-.335-2.993l.357.6c.062.928.037,1.867.086,2.778s.05,1.8.083,2.625" transform="translate(327.038 28.443)"/><path class="a" d="M271.168,166.81c-.094-1.226-.079-2.418-.2-3.516a33.737,33.737,0,0,1,.291,3.683l-.091-.168ZM186.7,81.727q-3.019-1.326-5.98-2.777c1.615.632,4.8,2.114,5.98,2.777m-6.309-3.166q1.41.573,2.8,1.169l.368.263q-1.578-.73-3.172-1.432M24.358-3.5c-1.173-1.123-2.24-2.355-3.35-3.538l-3.3-3.577c-.339-.266-1.082-.952-1.942-1.813l-2.67-2.849c-1.723-1.841-3.014-3.187-1.938-1.753C10.281-18.187,9-19.555,7.8-21.06L4.239-25.3C2.1-27.793.944-29.4,2.691-27.8A253.07,253.07,0,0,0,37,6.619,283.765,283.765,0,0,0,79.962,35.956l-4.47-2.85q2.548,1.548,5.127,3.044c1.636.85,3.164,1.614,4.61,2.33,2.9,1.407,5.431,2.679,7.93,3.772,2.515,1.058,4.924,2.089,7.467,3.27,1.274.586,2.574,1.228,3.95,1.9q2.228.988,4.422,2.048l-1.512-1.217c3.7,1.316,7.118,2.886,10.641,4.36a107.685,107.685,0,0,0,11.117,3.957l-.831-.043c2.048.744,2.89.948,4.963,1.715l-.858-.2c5.3,2.23,8.625,3.458,13.98,5.365.43-.034-2.449-1.038-4.078-1.724,2.5.763,6.53,2.75,10.634,4.395,3.286,1.126.058-.271-.356-.524,6.117,2.584,10.606,4.359,14.608,6.047a101.764,101.764,0,0,1,11.607,5.64c.758.52-3.253-1.147,1.116.924-8.089-3.373-14.456-6.464-21.754-9.717l2.049.834c-5.541-3.184-4.511-1.666-13.848-5.737,2.385,1.29,6.486,2.94,8.057,3.764-11.137-3.736-15.456-6.6-23.025-8.51l.8.324c-1.652-.532-4.521-1.754-6.99-2.736.86.2,3.345,1.04,5.03,1.574a25.952,25.952,0,0,1-4.44-2.286c-2.96-.679-3.7-1.535-8.271-2.973-1.721-.24,3.657,1.654,5.278,2.435l-5.338-2.168c-4.924-1.884-4.987-1.49-7.494-2.237-4.083-1.851,2.5.752-.729-.89-.676-.2-1.62-.512-2.775-.914s-2.533-.865-4.011-1.526q-5.172-2.2-10.31-4.48c-3.676-1.8-7.474-3.768-11.006-5.58-.89-.437-1.724-.943-2.543-1.418s-1.611-.944-2.376-1.39l-4.16-2.472c3.42,1.98,1.03,1.012,5.243,3.311-1.55-.776-6.852-3.964-6.753-4.22l-1.3-.782-1.3-.853-2.705-1.737q-2.8-1.776-5.634-3.507c-3.709-2.44-7.337-4.882-10.466-6.881l1.927,1-4.153-3.223q-2.525-1.9-5.09-3.745c-1.864-1.294-3.715-2.846-5.691-4.44l-3-2.485c-1.018-.851-2.051-1.727-3.032-2.7l.176.15C29.1.733,28-.509,26.623-1.979c-.69-.734-1.45-1.525-2.344-2.4s-1.854-1.9-3.038-3c.527.752,1.414,1.737,2.11,2.533.716.775,1.252,1.349,1.006,1.35m17.3,580.434,4.4-4.4c1.371-1.457,2.636-2.87,3.677-4.167a26.475,26.475,0,0,0-3.833,3.967,13.047,13.047,0,0,1,2.183-2.744c.518-.557,1.1-1.177,1.724-1.887q.982-1.21,1.876-2.488c-.206.34-1.171,1.665-.29.744q1.1-1.383,2.211-2.764l1.471-1.943c.827-1.07,1.4-1.763,2.028-2.551a84.6,84.6,0,0,0,6.33-9.924c1.134-1.79,2.143-3.63,2.258-3.163q.588-1.158,1.083-2.36l.665-1.6.791-1.975c.241-.572.47-1.208.87-2.278.384-1.079,1.03-2.556,1.855-4.911.086.438-.843,3.62-.438,3.718l.916-2.336.731-2.092,1.25-3.463q.815-2.527,1.693-5.034c.487-1.41.837-2.7,1.263-4.163q.337-1.192.642-2.392l.6-2.974-.488,1.733-.315,1.212c-.126.456-.27.97-.432,1.561a5.461,5.461,0,0,1,.259-1.752c.181-.826.46-1.858.782-3a70.135,70.135,0,0,0,1.8-7.547l-.578.394.41-1.842c.122-.662.253-1.367.387-2.1.265-1.47.584-3.058.833-4.7.224-1.64.44-3.32.622-4.955.2-1.631.237-3.231.292-4.69l-.358,1.3.506-4.495c.108-1.529.218-3.077.326-4.634l.148-2.343.071-2.352.128-4.685c.019-6.209-.127-12.2-.355-17.247l-.645-5.414c-.417-6.954-.071-3.514.349.4.328,3.914.732,8.3.78,3.188-.95-1.476-.216-7.212-1.306-15.112-.692-3.7.54,8.035-.24,3.93.3-1.791-.254-4.237-.5-8.458-.367.95-.724-8.84-1.015-6.186q-.125-7.469.062-14.938a39.085,39.085,0,0,1-.261-4.661c-.025-1.781-.036-3.661.051-5.257a18.1,18.1,0,0,0,.082,3.2c.067.31.152.065.243-.15.184-.431.392-.737.528,3.765-.006,6.557.332,15.318,1.068,24.46l1.226,13.8c.23,2.275.347,4.53.507,6.723l.23,3.242c.05,1.065.1,2.112.15,3.137a10.682,10.682,0,0,0-.172,2.456c.018,1.114.04,2.457.06,3.826a41.647,41.647,0,0,1-.192,6.889c.183.384.318,1.622.5,2.023-.18,5.3-.283,4.67-.307,3.045-.057-1.628-.1-4.252-.239-2.966-.046,1.158-.064,2.26-.06,3.256s-.026,1.884-.007,2.616c.027,1.463.126,2.3.245,2.092-.17,3.793-.311,3.995-.351,3.735-.062-.261-.13-.986-.46.928.07,1.66.16,3.326.21,5a188.071,188.071,0,0,1-3.21,18.762,151.418,151.418,0,0,1-6.1,19.838,135.136,135.136,0,0,1-9.239,19.243A137.049,137.049,0,0,1,51.8,567.16l.968-1.847a97.814,97.814,0,0,1-10.951,11.813l-2.7,2.48-1.335,1.257-1.375,1.23c-.916.83-1.831,1.685-2.751,2.578s-1.9,1.759-2.867,2.712c-1.027.68-2.016,1.407-3.07,2.046,1.709-1.069-1.287,1.782,1.4.04-2.7,1.924-5.4,4.24-8.285,6.113,1.61-1.24,3.227-2.468,4.778-3.783-1.773,1.188-3.62,2.448-5.12,3.592q-1,.758-1.958,1.569a14.48,14.48,0,0,0-1.233,1.083c-3.892,2.38-2.865,1.471-.691-.2l1.783-1.365,1.826-1.47c1.167-.944,2.155-1.762,2.51-2.124a75.63,75.63,0,0,0,6.13-4.47q1.962-1.682,3.81-3.491c2.207-2.263,4.34-4.481,8.81-8.64,5.415-5.29-.265.863.183.656M30.623,588.363q-.742.568-1.506,1.106c.522-.4,1.016-.764,1.506-1.106M78.929,401.1c.027-.953.058-2.076.1-3.58.13-1.208.017.726-.1,3.58m4.057-35.768.214.026c-.144.279-.248.393-.214-.026m51.277-82.4-1.314,1.663q.624-.857,1.314-1.663" transform="translate(57.989 28.443)"/><path class="a" d="M134.033,93.278c-5.342-3.434-12.67-7.651-16.66-10.153l.3.4c-2.922-1.705-12.613-7-6.1-4.115l1.45.95c7,4.018,5.363,2.4,10.966,5.3,6.592,3.813,9.931,6.739,15.712,10.182,2.453,1.631,2.191,1.2,1.55.585,5.7,3.668,7.5,5.72,11.17,8.54,1.235-.108,5.359,3.1,9.945,7.311,2.31,2.087,4.676,4.483,6.95,6.746,2.239,2.3,4.37,4.491,6.186,6.24,4.044,4.877,9.186,11.782,12.271,19.305-.78-2.013.134-.339,1,1.719.467,1.011.9,2.123,1.208,2.868s.52,1.11.473.653a27.751,27.751,0,0,0,1.091,4.529c.27,1.127.667,2.368.932,3.713l.458,2.047.365,2.111c1,5.656.85,11.338.2,12.017,0,2.735-.16,4.125-.2,4.876a6.124,6.124,0,0,1-.112,1.015c-.036.158-.08.369-.206,1.324l-.263,2.078-.617,3.693a16.452,16.452,0,0,0,.71-2.9c-.642,5.005-2.1,7.406-2.794,11.513-.718,2.433-1.248,3.7-1.51,4.384s-.354.737-.4.673-.062-.254-.212-.08a14.4,14.4,0,0,0-1.072,2.064c-1.9,4.89-2.7,6.6-3.144,7.829-.461,1.222-.593,1.95-1.733,4.643-.9.6-3.673,6.219-6.65,10.427.686-1.083,4.2-7.306,1.633-3.382a83.9,83.9,0,0,1-5.953,9.081l-6.215,8.182c-1.45,2.512.23.224,1.587-1.647.685-.93,1.264-1.774,1.342-1.85a25.226,25.226,0,0,1-1.713,2.71c4.492-5.66,7.454-10.272,9.883-13.327-2.528,4.154-5.574,8.606-8.836,13.03s-6.827,8.76-10.2,12.85c-3.567,4.683,2.087-2.178-.718,1.493-6.291,8.43-10.524,12.26-15.539,18.985l1.337-1.155c-3.522,3.725-11.52,14.527-17.76,22.01.647-1.082,1.063-1.783.184-.847.742.391-8.784,10.331-14.09,18.384.022-.462-1.424,1.133-3.324,3.434-1.862,2.331-4.2,5.356-5.885,7.792-1.074,1.8-.645,1.552-.515,1.6a53.569,53.569,0,0,1,5.524-7.448c1.382-1.578,2.722-2.872,5.1-5.864-4.09,4.9-9.985,13.6-13.284,18.07l1.538-1.594c-2.426,3.677-3.6,5.21-4.814,6.794a26.891,26.891,0,0,0-1.894,2.744c-.349.569-.73,1.214-1.156,1.974s-.9,1.63-1.388,2.68l.687-.667c-1.075,2.052-2.243,4.117-3.236,6.3-.5,1.088-1.053,2.164-1.528,3.28s-.944,2.238-1.416,3.362A109.835,109.835,0,0,0,80.1,366.607l-.465,1.736q-.192.873-.387,1.74l-.758,3.439-.61,3.395c-.2,1.117-.415,2.218-.55,3.315-.3,2.19-.66,4.3-.855,6.348-.233,2.041-.5,3.994-.652,5.848-.149.64-.3-.923-.362-2.7-.039-1.774-.05-3.77-.127-3.974.11-1.111.282-2.158.448-3.155l.48-2.855c.311-1.82.738-3.468,1.08-5.059q.137-.594.268-1.18c.106-.386.21-.77.316-1.152l.624-2.284c.384-1.532.886-3.051,1.384-4.678l-.477-.028a20.917,20.917,0,0,0,.762-1.97l1.023-2.587c.627-1.554,1.01-2.38.437-.2.933-2.6,1.272-3.589,1.568-4.706q.267-.981.6-1.942c.28-.806.754-1.81,1.432-3.246a6.819,6.819,0,0,0-1.4,1.976c-.537.885-.94,1.766-1.154,1.716q.533-1.29,1.157-2.54l1.207-2.512c-.434.773-.145-.008.15-.8.314-.78.653-1.56.194-.832,1.258-2.26,2.223-4.22,3.2-5.96l1.334-2.547c.424-.826.878-1.609,1.3-2.41.862-1.6,1.72-3.217,2.79-4.952l1.7-2.764q1.022-1.547,2.085-3.067c-1.064,1.657-2.133,3.312-3.131,5.014.128.052.631-.643,1.281-1.618s1.506-2.184,2.233-3.235a29.9,29.9,0,0,1,2.006-3.56c.805-1.234,1.774-2.751,3.306-5.005,2.915-3.68,4.855-5.49,8.684-10.54-.615.38.93-1.75,2.676-4.125a54.207,54.207,0,0,0,3.928-5.563c1.232-.76,7.746-9.5,8.536-10,2.193-2.583,5.045-6.238,4.814-6.384l-1.661,1.933,2.09-2.643c-.245.213-.2.09-.46.393,1.867-2.352,2.18-2.142,4.419-5.348A26.691,26.691,0,0,0,134,278.249c4.953-6.326,9.388-10.49,13.181-16.006,1.015-.888,6.783-8.141,5.972-6.238,1.4-2.078.467-1.592,4.707-6.868,2.76-2.78,4.542-6.028,7.812-9.993-2.2,2.611-2.26,2.574-2.218,2.482s.136-.274-1.856,1.95c2.65-3.739,7.233-8.847,11.484-15.61.346-.754.214-.8.563-1.558.864-1.209,1.828-2.488,2.682-3.825a21.682,21.682,0,0,0,2.193-4.044l.107.477c2.544-4.782,5.986-11.556,7.734-17.113.537-1.006.982-2.048,1.473-3.075s.948-2.074,1.376-3.13c1.075-4.446,2.312-9.624,3.1-14.663a89.911,89.911,0,0,0,1.162-13.563c-.218-3.375-1.195-8.325-1.39-8.264.14.763.24,2.087.4,3.612-.208-1.21-.394-2.494-.72-3.75-.149-.63-.3-1.26-.441-1.883l-.512-1.814c-.3-1.19-.673-2.292-.949-3.284-.257-1-.514-1.858-.638-2.555q-.26-.766-.54-1.525c-.17-.42-.333-.76-.471-1.051a11.887,11.887,0,0,0-.7-1.272,26.665,26.665,0,0,1-1.67-2.793c-1.9-4.741-6.152-11.06-10.537-16.048-4.323-5.054-8.574-8.943-9.315-10.422l2.756,2.606q1.744,1.693,3.43,3.444a86.034,86.034,0,0,1,7.4,8.833c-1.14-1.8.028-.591-1.784-2.963a75.657,75.657,0,0,0-6.767-7.525L169.39,119.2c-.564-.534-1.14-1.079-1.736-1.646-1.173-1.155-2.5-2.327-3.943-3.727l.224,1.164c-5.324-4.347-10.37-8.517-15.292-12.286a89.344,89.344,0,0,0-14.61-9.426" transform="translate(61.735 28.443)"/><path class="a" d="M331.088,171.368l-.1-1.447-.168-1.44c-.114-.96-.211-1.917-.393-2.864l.368.572.292,5.179m-.292-5.18c-.11-1.173-.132-2.314-.248-3.368.2,1.255.275,2.477.341,3.527l-.093-.158ZM251.934,81.835c-1.149-.567-3.415-1.654-5.635-2.868,1.519.674,4.537,2.173,5.635,2.868M246,78.576l2.648,1.214.343.266c-1-.492-1.986-1-2.99-1.48M98.112-3.773c-2.167-2.238-4.26-4.55-6.388-6.816a20.5,20.5,0,0,1-1.865-1.735l-2.59-2.707c-1.67-1.748-2.922-3.026-1.882-1.656C81.9-21.022,73.7-29.9,77.17-26.952A268.382,268.382,0,0,0,110.252,5.922a306.375,306.375,0,0,0,40.79,28.76l-4.23-2.822q2.414,1.534,4.861,3.014,1.088.673,2.226,1.26l2.119,1.115c2.74,1.43,5.171,2.643,7.5,3.824,2.38,1.088,4.67,2.126,7.076,3.327q1.881.936,3.731,1.933c1.289.708,2.7,1.347,4.16,2.135l-1.4-1.23c3.508,1.37,6.75,2.954,10.06,4.505a98.02,98.02,0,0,0,10.541,4.119l-.8-.057c1.942.775,2.745.985,4.709,1.785l-.82-.216c5.01,2.308,8.164,3.576,13.239,5.566.418-.028-2.313-1.076-3.853-1.781,2.38.8,6.171,2.842,10.055,4.544,3.118,1.175.069-.268-.318-.526,5.778,2.673,10.028,4.51,13.81,6.259a92.928,92.928,0,0,1,10.931,5.8c.707.53-3.087-1.19,1.034.936-7.645-3.49-13.641-6.67-20.53-10.027l1.936.866c-5.2-3.26-4.274-1.733-13.09-5.936,2.239,1.322,6.12,3.028,7.6,3.876-10.568-3.9-14.6-6.815-21.815-8.843l.754.337c-1.568-.559-4.282-1.813-6.615-2.836.818.21,3.175,1.094,4.777,1.648a23.662,23.662,0,0,1-4.178-2.345c-2.823-.725-3.505-1.575-7.838-3.1-1.646-.273,3.443,1.724,4.975,2.52L186.6,52.079c-4.655-1.967-4.741-1.56-7.124-2.346-3.857-1.9,2.38.786-.663-.893C176.2,48.1,169.7,45.122,162.63,41.7q-5.228-2.772-10.419-5.61c-3.26-1.97-6.255-3.81-8.584-5.273,3.244,1.959.961,1,4.961,3.279-1.474-.77-6.5-3.926-6.39-4.18-3.149-2.158-6.771-4.512-10.36-6.807-3.49-2.437-7-4.734-9.938-6.747.592.356,1.208.68,1.824,1-1.17-.927-2.445-2.04-3.931-3.157q-2.412-1.835-4.863-3.618c-.887-.63-1.761-1.333-2.661-2.057L109.5,6.292c-1.869-1.56-3.88-3.137-5.762-5l.169.143c-1.24-1.166-2.287-2.36-3.608-3.77q-1.1-1.176-2.248-2.3-1.419-1.478-2.913-2.88c1.005,1.45,3.425,3.76,2.973,3.743M132.15,94.873c-4.6-3.6-10.938-8.116-14.389-10.742l.237.408c-1.281-.885-4.01-2.77-5.708-4.034-1.722-1.226-2.4-1.86.5-.305l1.236,1.017c6.065,4.291,4.766,2.568,9.639,5.736q1.954,1.375,3.838,2.845l3.176,2.674q1.518,1.3,3.082,2.54c1.05.861,2.143,1.758,3.4,2.672,2.116,1.7,1.922,1.265,1.392.642a47.26,47.26,0,0,1,5.386,4.794l4.053,4.065c.588-.01,1.742.822,3.259,2.16.378.335.782.7,1.2,1.1l1.256,1.315c.863.93,1.8,1.938,2.77,2.99.992,1.032,1.912,2.211,2.876,3.362l2.89,3.438q1.3,1.7,2.671,3.347c.877,1.044,1.745,1.994,2.477,2.891a82.293,82.293,0,0,1,9.956,18.556c-.545-1.918.112-.295.884,1.6.844,1.871,1.444,4.144,1.449,3.28a16.467,16.467,0,0,0,.915,4.185c.28,1.026.492,2.207.786,3.43l.433,1.88a17.209,17.209,0,0,1,.387,1.93c.184,1.3.365,2.6.537,3.827l.226,1.775q.037.812.048,1.625c.035,2.036-.04,3.494-.326,3.827a25.694,25.694,0,0,1,.065,2.926l-.022,1.562a7.093,7.093,0,0,1-.05.94c-.092.292.09.793-.533,6.579a15.907,15.907,0,0,0,.486-2.708,36.186,36.186,0,0,1-.827,5.69,24.822,24.822,0,0,0-.878,5.08,22.757,22.757,0,0,1-.63,2.684c-.187.666-.323,1.13-.428,1.45-.207.639-.28.7-.331.643-.106-.113-.139-.688-1.022,1.925-.157.582-.278,1.125-.43,1.614l-.434,1.34-.652,2.061c-.35,1.136-.545,1.845-.685,2.43a37.233,37.233,0,0,1-1.175,4.41c-.433.3-1.14,1.8-2,3.757q-1.521,3.225-3.255,6.343c.492-1.074,3.262-7.035,1.184-3.25-1.222,2.52-2.03,4.31-2.81,5.627q-.929,1.6-1.92,3.17c-.569.913-1.127,1.806-1.89,3.026s-1.8,2.728-3.187,4.947c-2.24,4.85,5.484-8.9,1.092-.792.918-1.384,1.823-2.663,2.568-3.92L167,227.712q.9-1.517,1.84-3.009c.579-.914,1.048-1.78,1.553-2.526-.925,2.04-2.106,4.084-3.283,6.214l-1.8,3.23c-.612,1.085-1.314,2.132-1.978,3.21-1.361,2.133-2.681,4.324-4.111,6.412l-4.235,6.167c-2.894,4.58,1.761-2.15-.517,1.44-5.038,8.274-8.744,12.034-12.808,18.6l1.161-1.147c-1.483,1.837-3.85,5.386-6.536,9.364s-5.623,8.43-8.28,12.042c.518-1.039.852-1.713.092-.8.751.348-7.448,10.007-11.993,17.62-.048-.883-5.109,6.066-8.2,10.55-.958,1.666-.538,1.456-.416,1.5,4.734-7.543,5.271-6.842,9.456-12.51-1.788,2.33-3.947,5.56-6.082,8.693-1.07,1.565-2.127,3.109-3.1,4.526s-1.855,2.7-2.629,3.725l1.432-1.462a56.175,56.175,0,0,1-4.5,6.217,44.149,44.149,0,0,0-4.256,6.7l.691-.568c-2.3,3.6-4.34,7.569-6.506,11.508-.556.977-1.042,1.993-1.523,3.013l-1.457,3.047-1.454,3.035c-.237.506-.495,1-.712,1.513l-.633,1.54c-.849,2.044-1.685,4.064-2.505,6.043l-.619,1.473q-.264.75-.528,1.488-.522,1.48-1.032,2.918l-2.017,5.545c-.55,1.809-1.093,3.535-1.629,5.164-.543,1.1.7-5.752.68-6.145,1.452-3.85,2.621-6.873,3.8-9.622,1.3-2.7,2.51-5.176,3.812-8.018l-.462-.108c.376-.61,1.516-2.547,2.285-3.882s1.247-2.033.45-.113a26.563,26.563,0,0,0,1.93-4.141c.19-.5.382-1.02.72-1.73.362-.7.864-1.584,1.63-2.83-.655.2-2.42,3.206-2.758,3.1.838-1.487,1.775-2.917,2.656-4.377-.95,1.327,1.335-2.753.412-1.477,2.492-4.032,4.227-6.82,5.862-9.731.838-1.441,1.617-2.936,2.622-4.513q1.692-2.7,3.5-5.333l-2.882,4.6c.252.11,1.92-2.51,3.262-4.436a34.407,34.407,0,0,1,1.764-3.322l2.944-4.656c2.591-3.45,4.325-5.172,7.643-9.966-1.129.731,5.266-8.126,5.53-9.263,1.131-.735,6.57-9.166,7.272-9.668,1.848-2.508,4.213-6.06,3.973-6.19l-1.4,1.882,1.737-2.568c-.215.21-.188.092-.4.388,1.553-2.286,1.878-2.1,3.7-5.2A22.639,22.639,0,0,0,136,273.7c4.123-6.134,7.879-10.283,10.933-15.632.91-.861,5.589-7.99,5.038-6.153,1.1-2.032.254-1.53,3.728-6.7a33.169,33.169,0,0,0,3.064-4.46c.994-1.6,1.934-3.392,3.31-5.32-3.694,5.084-.117-.037-3.4,4.374,1.049-1.839,2.49-4.022,4.175-6.525.416-.63.864-1.268,1.287-1.947l1.256-2.12q1.338-2.282,2.59-4.612c.268-.713.144-.745.374-1.48,1.316-2.382,3.09-5.03,3.821-7.608l.17.442q.724-1.9,1.484-3.777l.824-2.04c.285-.689.57-1.39.791-2.115l1.4-4.3c.22-.708.441-1.4.636-2.088l.438-2.03,1.126-2.932c.374-.981.777-1.959,1.05-2.969q.2-1.626.45-3.244l.278-1.684.149-.853.09-.869q.191-1.759.422-3.513c.148-1.176.354-2.349.394-3.521l.265-3.46.147-1.674c.027-.552.017-1.093.03-1.625l.066-3.057c.017-.967.092-1.884.021-2.717-.214-1.54-.495-3.455-.742-4.979a16.383,16.383,0,0,0-.451-1.873,2.293,2.293,0,0,0-.257-.727c.052.354.12.832.2,1.4.037.282.094.583.125.906l.068,1.019a27.219,27.219,0,0,0-.713-3.443l-.815-3.422a34.317,34.317,0,0,1-1.347-5.412,13.077,13.077,0,0,0-.858-2.4,10.587,10.587,0,0,0-.622-1.186,15.374,15.374,0,0,1-1.393-2.653,65.636,65.636,0,0,0-8.629-15.442l-1.293-1.84-1.326-1.675c-.855-1.083-1.64-2.094-2.319-3-.658-.926-1.309-1.67-1.77-2.32a7.222,7.222,0,0,1-.92-1.52l2.334,2.6,2.817,3.476,1.571,1.953,1.512,2.154,1.545,2.235q.389.565.777,1.138c.244.39.468.794.7,1.192-.883-1.749.131-.578-1.393-2.863q-1.393-2.075-2.855-4.1c-.962-1.17-1.852-2.256-2.744-3.34l-1.343-1.638c-.448-.557-.963-1.077-1.46-1.648-1.01-1.13-2.077-2.356-3.267-3.778l.053,1.13-.825-.847-.855-.808q-.84-.819-1.67-1.624c-1.106-1.076-2.137-2.2-3.219-3.243q-1.611-1.54-3.194-3.108c-1.038-1.036-2.062-2.059-3.13-3a77.391,77.391,0,0,0-12.555-9.915" transform="translate(-76.333 28.443)"/><path class="a" d="M226.185,171.091l-.294-2.652-.515-2.62.375.515c.066.82.208,1.638.25,2.443q.057,1.16.184,2.314m-.434-4.757c-.109-1.081-.19-2.126-.255-3.1q.227,1.617.35,3.247l-.1-.143Z" transform="translate(-120.474 28.443)"/></g></svg>