<svg xmlns="http://www.w3.org/2000/svg" width="678.407" height="624.023" viewBox="0 0 678.407 624.023"><defs><style>.a{fill:#c9c9c9;fill-rule:evenodd;}</style></defs><g transform="translate(14 280.812)"><path class="a" d="M556.17,333.319c-6.411.024,1.717-.47-4.282-.484-3.248.292-1.372.38.516.485s3.79.29.617.6c-1.963-.058-4.53.1-6.932.281l-3.381.275q-1.276.142-2.556.243c2.855-.458,1.152-.959,0-1.008-2.448.358-8,.322-12.216.738,10.347-.542-8.649,1.006.7.587a36.961,36.961,0,0,1-5.906.944c-3,.338-6.388.778-8.363.846.253-.291,3.44-.6,6.054-.909,2.058-.73-6.56.479-8.086.2-4.865.917-15.073,2.6-22.962,3.812-3.958.531-7.334,1.046-9.163,1.373-1.83.308-2.108.534.152.632,3.392-.127,6.232-.73,9.866-1.166-10.227.891-.14-.559.693-.876,4.337-.417,11.732-1.787,10.083-1.162l-6.812,1.353,17.83-2.318,9.688-1.07,10.017-.9q20.079-1.568,40.237-1.441c-3.679-.04-7.358-.113-11.036-.021a30.649,30.649,0,0,1,4.24-.353c1.975-.036,4.294-.078,6.319-.113l-5.4-.778c3.186.085,6.24,0,5.963.261,3.9-.273,2.124-.476-.21-.746,2.067-.007,3.7-.02,5.093.025s2.533.094,3.618.136c2.17.072,4.1.092,7.3-.032-13.736-1.065-11.632-.02-27.374-.47l-4.308,1.056ZM503.919,337.2l-8.158,1.252,5.338-.591c-.154-.143,1.807-.485,2.82-.661m-57.583,5.922c2.88.046,5.347.106,7.627.081l6.52-.177c2.145-.013,4.327-.2,6.79-.271l3.932-.133,4.514-.24c6.312-.982-3.02-.66-.33-1.308a44.243,44.243,0,0,0-6.021.745,42.833,42.833,0,0,1-6.214.817c-2.472-.348-9.741.341-16.117-.017.772.192.769.384-.7.5"/><path class="a" d="M407.575,335.969c-2.545-.59-5.038-1.4-7.435-2.064a50.263,50.263,0,0,1-6.495-2.312,10.206,10.206,0,0,1,2.4.612c.59.2,1.25.428,1.946.685l2.2.717a7.831,7.831,0,0,0-1.684-.779c-.68-.242-1.455-.54-2.35-.841s-1.891-.65-2.987-1.06q-.863-.322-1.716-.672c-.593-.248-1.189-.568-1.815-.889.422.255,2.244,1.163.75.646-3.18-1.453-5.264-2.28-6.778-3s-2.528-1.184-3.663-1.7a39.072,39.072,0,0,1-4.294-2.207c-.953-.556-2.083-1.217-3.468-2.024q-1.142-.657-2.219-1.419l-2.6-1.766c-2.316-1.265-4.386-2.85-4.256-2.271q-2.087-1.693-4.143-3.423c-.864-.778-1.359-1.288-1.92-1.817s-1.166-1.11-2.215-2.064c-.517-.485-1.173-1.031-1.936-1.776l-2.767-2.735c.19.48,2.85,3.644,2.474,3.94-6.353-6.145-9.42-9.426-12-12.084a88.777,88.777,0,0,1-7.864-9.378c.83.959,1.84,2.062,3.75,4.43-.42-1.545-6.146-7.16-9.684-12.336l.838.15-1.437-1.851-1.548-2.158-3.433-4.825c-1.133-1.717-2.25-3.5-3.322-5.238-.524-.875-1.043-1.738-1.546-2.575q-.681-1.244-1.318-2.511l1.073,1.272c-.961-1.568-1.943-3.17-2.94-4.79l-1.479-2.463-1.406-2.536-2.811-5.119c-.923-1.715-1.769-3.468-2.645-5.187-.86-1.726-1.746-3.42-2.551-5.12l-2.35-5.013c-1.568-3.251-2.933-6.4-4.226-9.256-.776-2.122-1.593-4.224-2.3-6.37-3.444-7.94-1.884-3.939-.152.628,1.77,4.55,3.846,9.613.918,3.97a5.453,5.453,0,0,0-.565-2.321c-.385-1.013-.954-2.256-1.638-3.724A114.459,114.459,0,0,1,287.15,201.9c-1.33-4.488,3.9,9.209,2.444,4.227-1.316-1.824-2.092-4.837-4.178-9.654.915.856-4.135-10.206-2.353-7.415-2.679-5.574-5.416-11.118-8.3-16.584A97.812,97.812,0,0,0,269.6,161.3c4.389,8.985-1.875-2.127,2.8,8.046,3.575,7.32,8.038,17.25,12.346,27.8,4.227,10.572,8.6,21.663,12.668,31.017.794.869,2.167,3.837,3.58,6.93a56.531,56.531,0,0,0,3.99,7.572c.007.526.518,1.988.536,2.534,6.335,11.537-1.14-2.892.626-.2,2.778,5.037,4.62,9.32,4.137,8.983,4.68,8.184.688.811,3.428,4.775.8,1.9,1.586,3.822,2.485,5.682l3.037,4.742c1.012,1.623,2.183,3.181,3.294,4.814,2.2,3.28,4.713,6.487,7.223,9.8a191.234,191.234,0,0,0,17.317,19.088,148.118,148.118,0,0,0,20.778,16.45,146.3,146.3,0,0,0,22.827,12.18l-2.14-1.468c.864.39,1.7.793,2.546,1.133l2.512.94c1.651.594,3.233,1.2,4.806,1.689l4.638,1.318,2.25.623,2.249.508,4.434,1.031c1.472.352,2.972.594,4.47.93,1.5.3,3.01.7,4.567,1.012s3.15.646,4.789,1.032l2.284.142,2.293.044c-2.5-.032,2.523,1.014-1.456.914,2.058.141,4.175.377,6.31.615s4.306.323,6.438.407c-2.51-.267-5.03-.419-7.523-.82.662.02,1.331.052,2,.093.669.022,1.337.045,1.995.069,1.317.057,2.594.145,3.76.25s2.222.24,3.1.343a18.249,18.249,0,0,1,2.015.3c5.665-.1,3.98-.357.587-.645-.849-.067-1.8-.144-2.778-.22l-2.891-.335c-1.85-.22-3.429-.423-4.04-.567-1.987.021-3.712-.18-5.26-.284-1.543-.13-2.9-.27-4.13-.421-2.446-.392-4.376-.836-6.284-1.271-1.913-.4-3.761-1.007-6.084-1.566-1.157-.3-2.442-.553-3.876-.925s-3.04-.78-4.885-1.2c-9.1-2.309.812.772.215.792"/><path class="a" d="M426.6,341.173a22.54,22.54,0,0,0,2.313.189c-.817-.044-1.571-.137-2.313-.19M269.6,161.3l-2.071-3.932c-.8-1.28.38.816,2.071,3.932m177.44,181.327s0,0-.036-.008l-.115,0,.15,0m7.605-1.053c-1.408.036-2.815-.043-4.223-.075l.731.243c1.165-.04,2.33-.066,3.492-.168M245.713,123.511l-.218.141c.318.23.495.3.218-.14M139.171,68.252l2.494.847q-1.231-.469-2.494-.847"/><path class="a" d="M14.087-124.857c3.762-6.932,9.2-15.913,12.053-21.017l-.094.615c2.14-3.615,9.51-15.174,4.182-8.116l-1.01,1.9c-5.2,8.557-4.37,5.837-8.719,12.355-4.891,8.09-6.783,13.265-11.01,20.471-1.721,3.23-1.656,2.62-1.332,1.567-4.021,7.392-4.74,10.706-7.09,15.953-1.34.651-3.98,6.575-6.454,13.9C-7.9-79.9-10.1-71.219-11.93-65.239c-.689,3.888-1.451,8.44-1.83,13.314a73.342,73.342,0,0,0,.32,15.041c-.226-1.32-.3-1.4-.282-.79a29.982,29.982,0,0,0,.282,3.258c.277,2.756.93,5.859.434,4.827a10.079,10.079,0,0,1,.7,1.975c.3.95.614,2.172.984,3.562a86.162,86.162,0,0,0,3.257,9.475C-5.409-7.951-1.423-2.112-.309-1.83,1.524,1.028,2.657,2.35,3.2,3.114a6.5,6.5,0,0,0,.813.973c.143.141.33.331,1.11,1.24.4.447.91,1.1,1.7,1.971.8.851,1.792,2,3.164,3.4-.163.114-1.974-1.788-2.715-2.528,4.1,4.734,7.214,6.267,10.783,10.008.607.5,1.146.942,1.622,1.332l1.3.973c.749.556,1.279.938,1.653,1.194.747.512.868.524.87.428.015-.206-.489-.771,2.683,1.183,5.324,3.75,7.333,4.967,8.64,5.925s1.964,1.59,4.991,3.594c1.324.036,8.062,3.928,14.015,6.275-1.455-.649-9.35-4.7-4.013-2.372a108.564,108.564,0,0,0,12.374,5.364L74.2,46.366c3.222,1.608-.082.375-2.764-.646-1.345-.5-2.518-.988-2.652-1.013a32.6,32.6,0,0,0,3.626,1.645c-8.51-2.847-14.731-5.6-19.328-7.138,5.457,2.581,11.655,5.122,18.05,7.51,6.391,2.407,13.043,4.48,19.318,6.456,6.89,2.443-3.645-.864,1.766,1.046,12.265,4.488,19.252,5.652,29.027,9.252l-2.169-.314c6.181,1.518,21.82,7.343,33.356,10.99-1.4-.692-2.31-1.142-.768-.745-.5.873,16.114,4.908,27.023,9.855-.333-.46,2.236.277,5.753,1.452,3.491,1.242,7.94,2.9,11.306,4.4,2.3,1.2,1.7,1.21,1.594,1.342a65.679,65.679,0,0,0-10.688-4.288c-2.485-.778-4.753-1.245-9.225-2.84,1.872.638,4.03,1.432,6.316,2.294s4.666,1.88,7.037,2.839,4.66,2.017,6.8,2.9,4.042,1.792,5.654,2.418l-2.65-.728c4.94,2.343,7.15,3.27,9.445,4.2a31.915,31.915,0,0,1,3.74,1.775,51.313,51.313,0,0,1,5.612,3.448l-1.144-.311a123.583,123.583,0,0,1,14.451,10.394,126.171,126.171,0,0,1,12.83,12.782c7.77,9.069,13.835,18.732,18.675,26.6.522.63-.206-1.17-1.074-3.2s-2.006-4.224-2.021-4.5c-.755-1.163-1.45-2.277-2.161-3.311l-2.1-2.919c-.676-.926-1.313-1.822-1.957-2.67-.673-.828-1.323-1.63-1.96-2.418l-1.884-2.314c-.62-.762-1.3-1.468-1.946-2.205-1.323-1.451-2.582-2.985-4.085-4.472l.5-.28c-.393-.292-1.128-.973-1.95-1.758l-1.267-1.224c-.432-.4-.88-.774-1.271-1.115-1.58-1.358-2.472-2.054-.585.015-2.537-2.31-3.372-3.311-4.386-4.32q-.869-.915-1.8-1.771c-.39-.36-.845-.764-1.393-1.234q-1.008-.779-2.042-1.522a8.032,8.032,0,0,1,2.67,1.371c1.05.726,2.041,1.418,2.23,1.262-.908-.72-1.78-1.478-2.711-2.163l-2.809-2.033c1.864,1.182-3.133-2.72-1.333-1.589-5.4-3.5-9.1-5.96-12.955-8.323-1.933-1.166-3.85-2.4-6.1-3.568L206.23,93.8c-1.282-.636-2.676-1.257-4.182-1.94l3.293,1.628c1.1.546,2.163,1.154,3.246,1.726a6.764,6.764,0,0,1-2.389-.93q-2.212-1.034-4.444-2.025a35.746,35.746,0,0,0-4.433-2.476c-1.66-.777-3.661-1.777-6.763-3.139-5.483-1.993-8.708-2.647-16.077-5.41.893,0-2.144-1.206-5.557-2.537-3.427-1.29-7.227-2.7-7.833-3.189-1.79.007-14.468-4.75-15.63-4.745-4.021-1.234-9.461-3.112-9.324-3.41l3.034.9L135.207,66.9a2.5,2.5,0,0,1,.745.106c-3.535-1.194-3.71-.787-8.215-2.6a34.594,34.594,0,0,1,4.634,1.308c-9.435-3.248-16.86-4.624-24.55-7.775-1.653-.248-12.573-3.884-10.43-2.48-2.872-1.2-1.574-1.315-9.564-3.925-4.75-1.04-8.819-3.18-14.9-5.1,4.06,1.227,4.089,1.166,3.986,1.094s-.331-.19,3.25.78c-5.3-2.088-13.526-4.306-22.552-8.424-.877-.54-.775-.673-1.657-1.215-1.717-.672-3.593-1.34-5.39-2.147a28.23,28.23,0,0,1-5.045-2.683l.223.553C39.82,31.19,31.61,26.537,25.969,22c-1.239-.681-2.428-1.434-3.63-2.18l-1.8-1.12-1.763-1.181C14.594,13.678,9.759,9.166,5.518,4.462A100.392,100.392,0,0,1-4.794-8.924c-2.029-3.681-4.211-9.557-3.975-9.613.2.439.432,1.046.772,1.737l1.154,2.34c-.587-1.406-1.21-2.889-1.688-4.427-.248-.765-.53-1.518-.75-2.28s-.427-1.518-.634-2.252c-.819-2.937-1.412-5.586-2.005-7.237-1.153-6.172-.259-4.6-.556-9.231a60.24,60.24,0,0,1-.15-11.223A94.856,94.856,0,0,1-10.8-63.66c.39-2.024.9-3.954,1.312-5.769.47-1.8.9-3.471,1.289-4.953.406-1.475.733-2.769.954-3.82a11.184,11.184,0,0,0,.38-2.362l-.688,2.05-.756,2.433c-.563,1.726-1.1,3.69-1.678,5.8a107.242,107.242,0,0,0-2.751,14.045c.212-2.629-.337-.617.168-4.291.436-2.463.828-4.628,1.34-6.609.455-1.994.986-3.813,1.512-5.631.5-1.826,1.13-3.613,1.708-5.573.659-1.933,1.281-4.04,2.1-6.4l.4,1.383c3.232-7.9,6.2-15.467,9.338-22.5a114.507,114.507,0,0,1,10.27-19M518.07,274.214c2.758.122,5.12.24,7.3.282l6.252.055,14.618.012c6.09-.646-2.864-.817-.258-1.323-6.165.08-5.38.833-11.788,1.009a54.634,54.634,0,0,0-6.317-.238c-2.8.032-6.077-.073-9.126-.28.736.21.726.4-.686.483"/><path class="a" d="M480.911,267.119c-2.432-.605-4.872-1.214-7.186-1.789-2.293-.645-4.45-1.31-6.308-2,.62-.08,3.483.74,6.345,1.7a15.559,15.559,0,0,0-3.912-1.462c-.87-.25-1.847-.525-2.917-.868q-1.744-.633-3.44-1.39c.418.22,2.217.982.751.582l-3.951-1.464-2.694-1.082c-1.5-.586-2.512-.939-3.633-1.36a100.484,100.484,0,0,1-12.548-6.248c-2.255-1.13-4.414-2.39-4.245-1.844q-1.311-.821-2.553-1.744-.831-.612-1.66-1.226c-.889-.672-1.43-1.082-2.02-1.53s-1.22-.945-2.283-1.793c-1.054-.864-2.62-1.976-4.907-3.874.181.5,3.082,3.179,2.728,3.527l-2.367-1.823-2.03-1.687-3.4-2.768q-2.382-2.08-4.815-4.1c-1.363-1.141-2.509-2.24-3.842-3.475-.66-.623-1.36-1.289-2.123-2.047l-2.44-2.666,1.56,1.47,1.065,1.043c.408.388.87.826,1.4,1.33a6.463,6.463,0,0,0-1.338-1.63c-.692-.732-1.61-1.615-2.64-2.588a83.51,83.51,0,0,1-6.469-6.6l.832.048-1.548-1.628c-.531-.6-1.1-1.24-1.684-1.907-1.172-1.337-2.472-2.763-3.729-4.281q-1.865-2.315-3.674-4.675c-1.2-1.544-2.224-3.154-3.174-4.609l1.159,1.1-3.273-4.278q-1.572-2.241-3.176-4.53l-1.587-2.3-1.515-2.357-3-4.705q-5.317-8.788-10.214-17.821l-2.663-5.921c-3.84-7.354-2.082-3.63-.113.618,2.065,4.2,4.346,8.926,1.16,3.731.064-2.089-4.2-7.493-7.936-16.225-1.566-4.205,4.377,8.533,2.655,3.865-1.4-1.645-2.34-4.481-4.673-8.943.956.744-4.683-9.467-2.758-6.937q-4.453-7.7-9.225-15.21a46.807,46.807,0,0,0-2.592-4.917c-1.067-1.834-2.209-3.76-3.277-5.335a21.536,21.536,0,0,1,1.877,3.313c.122.358-.115.16-.34,0-.452-.327-.852-.511,1.77,4.168,4.027,6.689,9.056,15.839,13.912,25.622l7.211,14.835c1.16,2.464,2.424,4.836,3.605,7.173l1.753,3.451,1.772,3.294a12.705,12.705,0,0,1,1.682,2.4l2.285,3.942c1.654,2.808,3.3,5.768,4.42,6.913.05.5.672,1.851.732,2.372,3.434,5.3,3.153,4.593,2.18,2.92-.94-1.7-2.5-4.4-1.575-3.174q1.066,1.62,2.058,3.287c.618,1.012,1.183,1.907,1.612,2.665.87,1.51,1.281,2.424,1.032,2.286,2.5,3.767,2.769,3.887,2.65,3.6-.1-.3-.472-1.085,1.038.665.947,1.737,1.877,3.494,2.85,5.229a224.307,224.307,0,0,0,14.784,17.181,180.334,180.334,0,0,0,18.4,16.506,160.921,160.921,0,0,0,21.232,13.975,163.1,163.1,0,0,0,22.6,10.24l-2.12-1.29a116.436,116.436,0,0,0,18.423,5.34l4.281.873,2.133.464q1.074.205,2.158.412c1.445.287,2.9.6,4.39.945s3.019.63,4.589,1.01c1.465.065,2.92.2,4.388.206-2.4-.044,2.407,1.028-1.409.9,3.94.306,8.11,1.019,12.207,1.158-2.4-.279-4.809-.54-7.2-.93,2.538.124,5.2.278,7.428.526,1.116.123,2.126.262,2.962.4a17.614,17.614,0,0,1,1.923.35c5.432.043,3.826-.255.58-.63l-2.657-.3-2.765-.381c-1.77-.248-3.28-.476-3.865-.628a90.034,90.034,0,0,1-9-.8c-2.344-.392-4.2-.8-6.029-1.226-3.641-.956-7.179-1.912-14.291-3.416-8.772-2.079.8.719.215.782m18.273,4.894c.924.1,1.651.167,2.216.2q-1.106-.127-2.216-.2"/><path class="a" d="M335.027,110.5q-1.148-1.795-2.294-3.593c-.874-1.154.427.751,2.294,3.593m183.73,163.23s0,0-.036-.01h-.11l.145.009m7.324-.846c-1.352-.02-2.7-.123-4.049-.194l.694.26c1.118-.008,2.236-.011,3.355-.066M308.95,76.48l-.2.158c.319.2.494.249.2-.158M206.075,23.826l2.362.891q-1.163-.491-2.362-.891"/><path class="a" d="M86.165-167.613c3.347-6.782,8.239-15.58,10.779-20.581l-.063.6c1.937-3.532,8.583-14.876,3.7-7.94l-.9,1.86c-4.677,8.392-4,5.736-7.943,12.135-4.39,7.935-6,12.97-9.793,20.03-1.5,3.169-1.5,2.566-1.223,1.547-3.567,7.24-4.144,10.437-6.163,15.568-1.327.646-3.569,6.451-5.668,13.562-1.078,3.546-2.023,7.443-2.957,11.149-.873,3.722-1.705,7.264-2.487,10.163-1.137,7.458-2.15,17.66-.686,27.23-.438-2.533-.343-.263.039,2.365.143,1.32.385,2.72.526,3.67s.148,1.451-.082.956a33.3,33.3,0,0,1,1.663,5.292c.415,1.316.772,2.826,1.326,4.361l.788,2.37.923,2.38c2.447,6.387,6.086,12.094,7.162,12.39C76.783-45.714,77.8-44.4,78.3-43.652a7.2,7.2,0,0,0,.737.967c.134.14.307.328,1.021,1.225.356.45.85,1.077,1.544,1.96L84.5-36.11a19.447,19.447,0,0,1-2.5-2.527c3.725,4.715,6.683,6.273,9.913,10.039,2.224,2.042,3.545,3.014,4.229,3.549s.814.534.823.44-.092-.3.168-.213a17.386,17.386,0,0,1,2.36,1.45c4.935,3.828,6.8,5.083,8.011,6.062s1.8,1.627,4.616,3.678c1.286.06,7.563,4.095,13.184,6.564-1.365-.685-8.766-4.883-3.742-2.45A100,100,0,0,0,133.2-3.9L144.563.64c3.02,1.674-.1.37-2.629-.708-1.27-.53-2.378-1.036-2.505-1.067A30,30,0,0,0,142.84.583c-8.056-3.023-13.908-5.914-18.26-7.543C129.707-4.27,135.546-1.6,141.59.922c6.04,2.536,12.34,4.753,18.286,6.862,6.513,2.593-3.466-.943,1.65,1.084,11.59,4.745,18.26,6.06,27.5,9.849l-2.073-.36c5.88,1.642,20.667,7.764,31.626,11.574-1.323-.707-2.178-1.168-.706-.752-.517.854,15.3,5.158,25.657,10.123-.306-.457,2.148.284,5.5,1.467,3.33,1.238,7.568,2.893,10.785,4.344,2.2,1.175,1.61,1.189,1.508,1.321a63.649,63.649,0,0,0-10.206-4.215c-2.378-.763-4.54-1.262-8.8-2.856,7.18,2.492,18.535,7.762,24.643,10.3l-2.549-.684c4.731,2.265,6.875,3.108,9.081,3.982a31.775,31.775,0,0,1,3.616,1.64c.7.366,1.49.792,2.39,1.306q1.571.874,3.062,1.883l-1.111-.258c2.356,1.435,4.814,2.826,7.168,4.448,1.182.8,2.4,1.563,3.572,2.41l3.508,2.564A130.823,130.823,0,0,1,308.855,78.3l1.538,1.487q.732.772,1.463,1.539,1.452,1.538,2.883,3.044l2.7,3.092c.89,1.018,1.785,2.01,2.6,3.047,1.647,2.051,3.312,3.987,4.766,5.955,1.49,1.94,2.958,3.77,4.252,5.57.545.562-.257-1.128-1.286-2.979-1.049-1.835-2.26-3.879-2.308-4.134-.794-1.067-1.611-2.03-2.392-2.945q-1.119-1.307-2.239-2.619c-1.436-1.668-2.883-3.089-4.208-4.5l-1-1.04-1.03-.983-2.037-1.95c-1.332-1.327-2.776-2.57-4.282-3.924l.47-.322a24.9,24.9,0,0,1-1.986-1.544l-2.632-2.012c-1.593-1.2-2.491-1.81-.566.067-2.547-2.083-3.5-2.883-4.486-3.841q-.875-.838-1.807-1.613c-.78-.651-1.88-1.385-3.452-2.435a8.113,8.113,0,0,1,2.637,1.16c1.09.574,2.043,1.226,2.23,1.044q-1.334-.99-2.737-1.883l-2.773-1.823c.916.522.142-.1-.643-.724-.8-.6-1.623-1.19-.708-.73-2.67-1.535-4.858-2.944-6.923-4.12L281.979,56.4c-.94-.583-1.883-1.1-2.81-1.66-1.86-1.1-3.729-2.229-5.885-3.343l-3.426-1.782q-1.992-.952-4.008-1.852c2.1,1.04,4.208,2.072,6.271,3.2-.1.13-1.04-.27-2.3-.866l-4.263-1.933a35.606,35.606,0,0,0-4.232-2.4c-1.578-.766-3.5-1.72-6.444-3.081-5.232-1.969-8.323-2.627-15.328-5.432.86.01-2.023-1.216-5.262-2.57-3.248-1.333-6.857-2.773-7.421-3.27-1.724-.019-13.735-4.948-14.847-4.973-3.823-1.292-8.975-3.273-8.83-3.564l2.882.954-3.755-1.415c.381.066.264-.033.71.12-3.348-1.257-3.537-.85-7.79-2.75a31.931,31.931,0,0,1,4.4,1.392c-8.936-3.42-16.017-4.95-23.272-8.253-1.58-.284-11.915-4.15-9.92-2.7-2.708-1.261-1.454-1.34-9.017-4.124-4.524-1.146-8.334-3.368-14.1-5.41,3.849,1.316,3.885,1.242,3.786,1.174s-.307-.2,3.09.852c-5-2.19-12.809-4.594-21.295-8.891-.817-.557-.71-.686-1.53-1.245-1.624-.7-3.392-1.418-5.084-2.259a25.7,25.7,0,0,1-4.718-2.783l.183.553c-5.53-3.321-13.2-8.124-18.39-12.724-1.166-.7-2.259-1.488-3.39-2.236s-2.233-1.543-3.325-2.35C88.835-33.108,84.4-37.634,80.5-42.3A107.16,107.16,0,0,1,71-55.427c-1.847-3.579-3.886-9.23-3.65-9.288.326.865,1.035,2.279,1.809,3.932-.53-1.363-1.127-2.787-1.564-4.27-.236-.734-.471-1.467-.706-2.192l-.59-2.166c-.42-1.4-.718-2.752-1.046-3.934-.35-1.176-.614-2.211-.915-3q-.205-.941-.385-1.887c-.083-.535-.126-.982-.163-1.363a14.332,14.332,0,0,1-.067-1.727,31.548,31.548,0,0,0-.007-3.875c-.967-6.006-.5-15.063.912-22.844,1.314-7.809,3.268-14.386,3.117-16.35l-1.215,4.35c-.447,1.681-.92,3.578-1.39,5.62A102.494,102.494,0,0,0,63-100.864c.06-2.531-.392-.586,0-4.119a90.368,90.368,0,0,1,2.293-11.83l.676-2.656.764-2.745c.488-1.9,1.12-3.906,1.738-6.223l.486,1.326c2.767-7.7,5.36-15.053,8.073-21.92a106.443,106.443,0,0,1,9.132-18.582m540.3,296.545c-1.126-.255-2.26-.49-3.38-.714-1.117-.246-2.22-.489-3.294-.724a54.665,54.665,0,0,1-5.9-1.538,8.007,8.007,0,0,1,2.165.32c1.078.224,2.422.547,3.763.918a12.807,12.807,0,0,0-3.676-1.147,54.808,54.808,0,0,1-5.985-1.722c.4.176,2.107.749.725.5-5.925-1.8-7.624-2.194-9.744-2.808q-2.057-.582-4.087-1.25c-1.837-.655-4.37-1.544-8.093-3.073-2.218-.707-4.36-1.555-4.14-1.05-8.218-4.062-4.043-2.108-13.749-7.22.253.421,3.3,2.431,3.02,2.83q-2.3-1.182-4.565-2.445l-3.556-1.909q-2.534-1.433-5.108-2.794c-1.44-.775-2.695-1.525-4.132-2.378q-1.166-.7-2.307-1.432-1.374-.938-2.727-1.906c.97.558,2.1,1.234,4.39,2.641a5.561,5.561,0,0,0-1.515-1.222c-.768-.52-1.772-1.124-2.9-1.785a80.767,80.767,0,0,1-7.169-4.574l.78-.168c-4.21-2.827-11.478-7.819-15.977-12.4l1.29.717c-10.26-7.978-20.542-19.252-27.74-27.632-1.174-1.608-2.3-3.252-3.454-4.873q-1.225-1.421-2.416-2.871c-.42-.5-.508-.565-.37-.335s.5.753.992,1.439l1.788,2.36c2.579,3.445,5.557,7.248,1.67,3.2-.112-1-1.41-2.481-3.321-4.606a92.785,92.785,0,0,1-6.77-8.6c-2.137-3.53,5.505,6.9,3.142,2.974-1.586-1.208-2.936-3.61-5.869-7.2,1.02.487-5.837-7.779-3.634-5.847l-1.337-1.552-1.407-1.494-2.812-2.986-5.612-5.956a93.383,93.383,0,0,0-7.272-8.085c6.016,6.46-2.2-1.235,4.353,6.148l1.944,2.019,1.969,2.272,4.25,4.958c.74.865,1.493,1.75,2.26,2.646q.572.675,1.156,1.357.551.709,1.11,1.427l4.53,5.879q4.633,6.015,9.173,12.1c1.553,1.97,3.087,3.912,4.58,5.8l4.47,5.4a35.134,35.134,0,0,1,4.847,4.9,45.049,45.049,0,0,0,5.381,5.3c.118.469.938,1.564,1.1,2.022,8.436,8-1.685-2.182.528-.39,1.858,1.732,3.424,3.409,4.51,4.593s1.654,1.907,1.392,1.845c6.14,5.623.793.5,4.224,3.02l3.628,4.117c5.074,4.071,10.72,8.268,16.868,12.285a213.761,213.761,0,0,0,19.743,11.3,228.835,228.835,0,0,0,21.413,9.438c7.267,2.767,14.568,5.168,21.647,7.272l-2.025-1.067a152.868,152.868,0,0,0,17.2,4.05c5.3,1.032,10.414,1.934,16.15,3.494,1.346.112,2.7.166,4.047.251-2.207-.117,2.167,1.1-1.336.863,1.8.208,3.656.522,5.527.824,1.874.279,3.764.561,5.636.757l-6.567-1.2a55.7,55.7,0,0,1,11.246,1.8c9.958.778-5.783-1.567-7.884-2.364a68.151,68.151,0,0,1-13.788-2.338c-1.675-.45-3.331-.893-5.38-1.442-2.055-.518-4.524-1.042-7.814-1.71-8.183-1.549.758.638.2.777M466.178,10.529c-.724-.754-1.528-1.689-2.724-2.822-.526-.415-.389-.272.17.24s1.456,1.468,2.554,2.582M229.994-251.818c2.486-6.5,6.187-14.993,8.1-19.79l.008.562c.765-1.689,2.4-5.287,3.352-7.619,1.006-2.307,1.3-3.367-.693-.006l-.638,1.8c-3.559,8.1-3.29,5.543-6.32,11.766q-1.151,2.6-2.174,5.258l-1.6,4.678q-.754,2.255-1.589,4.482c-.544,1.524-1.11,3.11-1.826,4.81-1.12,3.03-1.186,2.47-1.027,1.51a56.225,56.225,0,0,0-2.558,8.2c-.55,2.226-1.031,4.167-1.643,6.635-.607.35-1.274,1.907-2,4.2-.182.574-.37,1.193-.553,1.853l-.477,2.113-.993,4.752c-.38,1.661-.6,3.429-.874,5.2l-.84,5.282q-.286,2.534-.675,5.054c-.255,1.6-.558,3.105-.755,4.47a98.034,98.034,0,0,0,1.218,25.047c-.62-2.293-.294-.232.081,2.179.287,2.427,1.067,5.115.534,4.237a19.658,19.658,0,0,1,1.631,4.832c.344,1.22.853,2.554,1.3,3.983l.711,2.184a20.376,20.376,0,0,0,.789,2.209c.612,1.443,1.224,2.88,1.8,4.235.295.673.582,1.327.857,1.95.321.6.645,1.163.948,1.689,1.213,2.1,2.184,3.54,2.68,3.706a30.48,30.48,0,0,0,1.727,3.027c.455.73.764,1.23.98,1.58a8.421,8.421,0,0,0,.628.929c.274.242.4.865,4.58,6.388a18.759,18.759,0,0,1-2.157-2.466,43.258,43.258,0,0,0,4.334,5.3,29.561,29.561,0,0,1,4.012,4.647,27.186,27.186,0,0,0,2.288,2.353c.6.565,1.023.955,1.326,1.218.6.525.715.543.733.453.04-.18-.28-.787,2.224,1.338.517.5.973.978,1.428,1.384l1.266,1.1,1.93,1.7c1.052.945,1.686,1.549,2.189,2.061a44.407,44.407,0,0,0,3.9,3.78c.623.037,2.267,1.135,4.348,2.607q3.531,2.359,7.213,4.478c-1.16-.8-7.644-5.18-3.2-2.591,2.793,1.822,4.715,3.154,6.32,4.02q1.932,1.068,3.9,2.06l3.785,1.928c1.518.792,3.507,1.683,6.287,3.1,5.26,3.577-11.056-5.72-1.6-.139-1.786-.85-3.494-1.6-5.027-2.427l-4.292-2.318q-1.847-1-3.721-1.942c-1.151-.577-2.162-1.174-3.134-1.626,2.2,1.516,4.654,2.878,7.161,4.33l3.82,2.191c1.291.733,2.65,1.37,3.988,2.064,2.7,1.342,5.39,2.77,8.13,4.024l8.1,3.7c5.764,2.9-3.116-1.114,1.412,1.155,10.217,5.354,16.3,6.919,24.481,11.13l-1.888-.458c2.64.965,7.233,3.136,12.414,5.549s10.91,5.155,15.838,7.213c-1.167-.742-1.92-1.226-.588-.765-.553.817,13.74,5.647,23.05,10.631-.495-.931,8.934,3.058,14.837,5.74,2,1.113,1.443,1.156,1.346,1.28-9.458-4.8-9.577-3.752-17.324-6.97,3.254,1.28,7.438,3.255,11.54,5.142,2.052.941,4.077,1.87,5.937,2.72s3.553,1.623,4.968,2.19l-2.357-.614a66.915,66.915,0,0,0,8.4,3.589,52.368,52.368,0,0,1,8.457,4.233l-1.054-.156c4.555,2.271,9.072,5.063,13.7,7.757,1.166.656,2.285,1.4,3.4,2.14l3.356,2.217,3.346,2.206c.552.371,1.12.718,1.655,1.108l1.59,1.184q3.18,2.349,6.263,4.631l1.535,1.124,1.452,1.2L448.853-4.6q2.828,2.288,5.46,4.422,2.505,2.265,4.83,4.272c1.226.784-4.24-5.443-4.463-5.855-3.844-3.039-6.891-5.408-9.782-7.49-2.987-1.96-5.736-3.744-8.809-5.847l.406-.392c-.759-.393-3.11-1.67-4.714-2.561s-2.52-1.31-.529.16a31.612,31.612,0,0,1-4.509-3.044c-.5-.39-1.015-.805-1.8-1.323-.8-.49-1.853-1.088-3.4-1.89.788-.2,4.438,1.788,4.715,1.47-1.767-1-3.6-1.889-5.395-2.838,1.783.771-3.051-1.993-1.326-1.255-5.018-2.587-8.5-4.37-11.953-6.338-1.738-.957-3.45-2.005-5.444-3q-3.385-1.723-6.844-3.3l5.763,2.928c-.19.267-3.5-1.385-6.05-2.527a41.286,41.286,0,0,0-3.838-2.309l-5.86-2.948c-4.761-1.93-7.587-2.626-13.914-5.484,1.6.054-10.359-5.065-11.326-6.063-1.605-.057-12.327-5.326-13.352-5.408-3.425-1.427-8.017-3.6-7.852-3.882.5.2,1.515.624,2.581,1.063l-3.347-1.555c.347.08.248-.022.65.147-2.988-1.38-3.2-.99-6.966-3.042a26.92,26.92,0,0,1,3.951,1.561c-7.97-3.732-14.348-5.664-20.747-9.25-1.457-.321-10.6-4.729-8.916-3.19-2.37-1.4-1.2-1.407-7.913-4.553a39.414,39.414,0,0,1-5.864-2.673c-1.995-1.025-4.055-2.277-6.642-3.4,6.89,2.924.1-.11,6.152,2.38-2.2-1.233-5.008-2.577-8.264-4.1-.81-.388-1.66-.764-2.508-1.2L278.456-94.3q-2.765-1.507-5.473-3.117c-.71-.564-.6-.673-1.289-1.282-2.8-1.625-6.24-3.239-8.566-5.422l.1.555q-1.9-1.491-3.83-2.945c-.685-.514-1.385-1.042-2.094-1.576s-1.434-1.07-2.1-1.675l-4.071-3.534c-.66-.588-1.312-1.162-1.93-1.74q-.87-.93-1.693-1.8l-2.947-2.3a37.321,37.321,0,0,1-2.893-2.386c-.77-.993-1.59-2.009-2.45-3.036l-1.315-1.548-.675-.779-.625-.832q-1.274-1.678-2.585-3.327c-.873-1.11-1.8-2.18-2.562-3.353-.81-1.14-1.612-2.268-2.392-3.368l-1.177-1.62c-.366-.546-.688-1.1-1.028-1.639l-1.941-3.08c-.611-.977-1.25-1.867-1.69-2.76q-1.176-2.757-2.3-5.537a19.688,19.688,0,0,1-.688-2.19,2.839,2.839,0,0,1-.184-.9l.653,1.55c.135.31.262.653.429,1l.555,1.082a32.4,32.4,0,0,1-1.383-3.952l-1.267-3.992a40.911,40.911,0,0,0-1.944-6.35,15.533,15.533,0,0,1-.6-2.974,12.669,12.669,0,0,1-.092-1.594,18.343,18.343,0,0,0-.206-3.561,78.179,78.179,0,0,1-.663-21.055l.192-2.67.326-2.524c.209-1.63.39-3.143.525-4.487.1-1.349.312-2.508.383-3.453a8.581,8.581,0,0,0,.007-2.117l-.79,4.081-.743,5.277-.4,2.957c-.074,1.02-.147,2.064-.223,3.125l-.206,3.229q-.05.816-.1,1.638c-.011.548.01,1.1.015,1.648-.17-2.328-.488-.51-.334-3.778.119-2.2.24-4.14.4-5.938l.751-5.093.368-2.495c.115-.844.322-1.69.479-2.578q.556-2.922,1.018-5.86l.638,1.185.324-1.37.376-1.349.708-2.681c.47-1.777.834-3.555,1.3-5.285s.923-3.44,1.355-5.13.841-3.367,1.354-4.986a92.071,92.071,0,0,1,6.734-17.82"/></g></svg>